<mxfile host="app.diagrams.net" modified="2024-04-02T02:23:02.718Z" agent="Mozilla/5.0 (Windows NT 10.0; Win64; x64) AppleWebKit/537.36 (KHTML, like Gecko) Chrome/123.0.0.0 Safari/537.36" etag="-t6Ef-Lw81OrrWRACWws" version="24.2.1" type="device">
  <diagram name="페이지-1" id="OZb_UPjNZIz8MWLPdcfe">
    <mxGraphModel dx="1434" dy="780" grid="1" gridSize="10" guides="1" tooltips="1" connect="1" arrows="1" fold="1" page="1" pageScale="1" pageWidth="827" pageHeight="1169" math="0" shadow="0">
      <root>
        <mxCell id="0" />
        <mxCell id="1" parent="0" />
        <mxCell id="bbrRlCH3F_wI_q4qQrbH-1" value="&lt;font style=&quot;font-size: 16px;&quot;&gt;&lt;b&gt;traffic&lt;/b&gt;&lt;/font&gt;&lt;div&gt;&lt;span style=&quot;font-size: 16px;&quot;&gt;&lt;b&gt;(교통편)&lt;/b&gt;&lt;/span&gt;&lt;/div&gt;" style="rounded=0;whiteSpace=wrap;html=1;" parent="1" vertex="1">
          <mxGeometry x="420" y="20" width="120" height="60" as="geometry" />
        </mxCell>
        <mxCell id="bbrRlCH3F_wI_q4qQrbH-2" value="t_type&lt;div&gt;(종류)&lt;/div&gt;" style="ellipse;whiteSpace=wrap;html=1;" parent="1" vertex="1">
          <mxGeometry x="250" y="120" width="100" height="50" as="geometry" />
        </mxCell>
        <mxCell id="bbrRlCH3F_wI_q4qQrbH-4" value="no&lt;div&gt;(번호)&lt;/div&gt;" style="ellipse;whiteSpace=wrap;html=1;" parent="1" vertex="1">
          <mxGeometry x="370" y="120" width="100" height="50" as="geometry" />
        </mxCell>
        <mxCell id="bbrRlCH3F_wI_q4qQrbH-5" value="route&lt;div&gt;(노선도)&lt;/div&gt;" style="ellipse;whiteSpace=wrap;html=1;" parent="1" vertex="1">
          <mxGeometry x="490" y="120" width="100" height="50" as="geometry" />
        </mxCell>
        <mxCell id="bbrRlCH3F_wI_q4qQrbH-6" value="coment&lt;div&gt;(설명)&lt;/div&gt;" style="ellipse;whiteSpace=wrap;html=1;" parent="1" vertex="1">
          <mxGeometry x="610" y="120" width="100" height="50" as="geometry" />
        </mxCell>
        <mxCell id="bbrRlCH3F_wI_q4qQrbH-7" value="" style="endArrow=classic;html=1;rounded=0;exitX=0.5;exitY=1;exitDx=0;exitDy=0;entryX=0.5;entryY=0;entryDx=0;entryDy=0;" parent="1" source="bbrRlCH3F_wI_q4qQrbH-1" target="bbrRlCH3F_wI_q4qQrbH-2" edge="1">
          <mxGeometry width="50" height="50" relative="1" as="geometry">
            <mxPoint x="320" y="75" as="sourcePoint" />
            <mxPoint x="370" y="25" as="targetPoint" />
          </mxGeometry>
        </mxCell>
        <mxCell id="bbrRlCH3F_wI_q4qQrbH-8" value="" style="endArrow=classic;html=1;rounded=0;exitX=0.5;exitY=1;exitDx=0;exitDy=0;entryX=0.5;entryY=0;entryDx=0;entryDy=0;" parent="1" source="bbrRlCH3F_wI_q4qQrbH-1" target="bbrRlCH3F_wI_q4qQrbH-4" edge="1">
          <mxGeometry width="50" height="50" relative="1" as="geometry">
            <mxPoint x="630" y="210" as="sourcePoint" />
            <mxPoint x="680" y="160" as="targetPoint" />
          </mxGeometry>
        </mxCell>
        <mxCell id="bbrRlCH3F_wI_q4qQrbH-9" value="" style="endArrow=classic;html=1;rounded=0;exitX=0.45;exitY=0.983;exitDx=0;exitDy=0;exitPerimeter=0;entryX=0.5;entryY=0;entryDx=0;entryDy=0;" parent="1" source="bbrRlCH3F_wI_q4qQrbH-1" target="bbrRlCH3F_wI_q4qQrbH-5" edge="1">
          <mxGeometry width="50" height="50" relative="1" as="geometry">
            <mxPoint x="630" y="310" as="sourcePoint" />
            <mxPoint x="680" y="260" as="targetPoint" />
          </mxGeometry>
        </mxCell>
        <mxCell id="bbrRlCH3F_wI_q4qQrbH-10" value="" style="endArrow=classic;html=1;rounded=0;exitX=0.5;exitY=1;exitDx=0;exitDy=0;entryX=0.5;entryY=0;entryDx=0;entryDy=0;" parent="1" source="bbrRlCH3F_wI_q4qQrbH-1" target="bbrRlCH3F_wI_q4qQrbH-6" edge="1">
          <mxGeometry width="50" height="50" relative="1" as="geometry">
            <mxPoint x="630" y="310" as="sourcePoint" />
            <mxPoint x="680" y="260" as="targetPoint" />
          </mxGeometry>
        </mxCell>
        <mxCell id="bbrRlCH3F_wI_q4qQrbH-12" value="&lt;span style=&quot;font-size: 16px;&quot;&gt;&lt;b&gt;guide&lt;/b&gt;&lt;/span&gt;&lt;div&gt;&lt;span style=&quot;font-size: 16px;&quot;&gt;&lt;b&gt;(안내사항)&lt;/b&gt;&lt;/span&gt;&lt;/div&gt;" style="rounded=0;whiteSpace=wrap;html=1;" parent="1" vertex="1">
          <mxGeometry x="414" y="230" width="120" height="60" as="geometry" />
        </mxCell>
        <mxCell id="bbrRlCH3F_wI_q4qQrbH-13" value="pcode&lt;div&gt;(장소코드)&lt;/div&gt;" style="ellipse;whiteSpace=wrap;html=1;" parent="1" vertex="1">
          <mxGeometry x="10" y="350" width="100" height="50" as="geometry" />
        </mxCell>
        <mxCell id="bbrRlCH3F_wI_q4qQrbH-14" value="pname&lt;div&gt;(장소이름)&lt;/div&gt;" style="ellipse;whiteSpace=wrap;html=1;" parent="1" vertex="1">
          <mxGeometry x="130" y="350" width="100" height="50" as="geometry" />
        </mxCell>
        <mxCell id="bbrRlCH3F_wI_q4qQrbH-15" value="ptype&lt;div&gt;(장소종류)&lt;/div&gt;" style="ellipse;whiteSpace=wrap;html=1;" parent="1" vertex="1">
          <mxGeometry x="250" y="350" width="100" height="50" as="geometry" />
        </mxCell>
        <mxCell id="bbrRlCH3F_wI_q4qQrbH-16" value="paddr&lt;div&gt;(장소주소)&lt;/div&gt;" style="ellipse;whiteSpace=wrap;html=1;" parent="1" vertex="1">
          <mxGeometry x="370" y="350" width="100" height="50" as="geometry" />
        </mxCell>
        <mxCell id="bbrRlCH3F_wI_q4qQrbH-18" value="ptel&lt;div&gt;(장소연락처)&lt;/div&gt;" style="ellipse;whiteSpace=wrap;html=1;" parent="1" vertex="1">
          <mxGeometry x="490" y="350" width="100" height="50" as="geometry" />
        </mxCell>
        <mxCell id="bbrRlCH3F_wI_q4qQrbH-19" value="pgps&lt;div&gt;(장소GPS값)&lt;/div&gt;" style="ellipse;whiteSpace=wrap;html=1;" parent="1" vertex="1">
          <mxGeometry x="610" y="350" width="100" height="50" as="geometry" />
        </mxCell>
        <mxCell id="bbrRlCH3F_wI_q4qQrbH-21" value="pcoment&lt;div&gt;(장소설명)&lt;/div&gt;" style="ellipse;whiteSpace=wrap;html=1;" parent="1" vertex="1">
          <mxGeometry x="727" y="350" width="100" height="50" as="geometry" />
        </mxCell>
        <mxCell id="bbrRlCH3F_wI_q4qQrbH-22" value="premark&lt;div&gt;(참고사항)&lt;/div&gt;" style="ellipse;whiteSpace=wrap;html=1;" parent="1" vertex="1">
          <mxGeometry x="850" y="350" width="100" height="50" as="geometry" />
        </mxCell>
        <mxCell id="bbrRlCH3F_wI_q4qQrbH-23" value="" style="endArrow=classic;html=1;rounded=0;exitX=0.5;exitY=1;exitDx=0;exitDy=0;entryX=0.5;entryY=0;entryDx=0;entryDy=0;" parent="1" source="bbrRlCH3F_wI_q4qQrbH-12" target="bbrRlCH3F_wI_q4qQrbH-13" edge="1">
          <mxGeometry width="50" height="50" relative="1" as="geometry">
            <mxPoint x="240" y="290" as="sourcePoint" />
            <mxPoint x="290" y="240" as="targetPoint" />
          </mxGeometry>
        </mxCell>
        <mxCell id="bbrRlCH3F_wI_q4qQrbH-24" value="" style="endArrow=classic;html=1;rounded=0;exitX=0.5;exitY=1;exitDx=0;exitDy=0;entryX=0.5;entryY=0;entryDx=0;entryDy=0;" parent="1" source="bbrRlCH3F_wI_q4qQrbH-12" target="bbrRlCH3F_wI_q4qQrbH-14" edge="1">
          <mxGeometry width="50" height="50" relative="1" as="geometry">
            <mxPoint x="240" y="240" as="sourcePoint" />
            <mxPoint x="290" y="190" as="targetPoint" />
          </mxGeometry>
        </mxCell>
        <mxCell id="bbrRlCH3F_wI_q4qQrbH-25" value="" style="endArrow=classic;html=1;rounded=0;entryX=0.5;entryY=0;entryDx=0;entryDy=0;" parent="1" target="bbrRlCH3F_wI_q4qQrbH-15" edge="1">
          <mxGeometry width="50" height="50" relative="1" as="geometry">
            <mxPoint x="470" y="290" as="sourcePoint" />
            <mxPoint x="290" y="190" as="targetPoint" />
          </mxGeometry>
        </mxCell>
        <mxCell id="bbrRlCH3F_wI_q4qQrbH-26" value="" style="endArrow=classic;html=1;rounded=0;exitX=0.5;exitY=1;exitDx=0;exitDy=0;entryX=0.5;entryY=0;entryDx=0;entryDy=0;" parent="1" source="bbrRlCH3F_wI_q4qQrbH-12" target="bbrRlCH3F_wI_q4qQrbH-16" edge="1">
          <mxGeometry width="50" height="50" relative="1" as="geometry">
            <mxPoint x="140" y="270" as="sourcePoint" />
            <mxPoint x="190" y="220" as="targetPoint" />
          </mxGeometry>
        </mxCell>
        <mxCell id="bbrRlCH3F_wI_q4qQrbH-27" value="" style="endArrow=classic;html=1;rounded=0;exitX=0.5;exitY=1;exitDx=0;exitDy=0;entryX=0.5;entryY=0;entryDx=0;entryDy=0;" parent="1" source="bbrRlCH3F_wI_q4qQrbH-12" target="bbrRlCH3F_wI_q4qQrbH-18" edge="1">
          <mxGeometry width="50" height="50" relative="1" as="geometry">
            <mxPoint x="150" y="250" as="sourcePoint" />
            <mxPoint x="200" y="200" as="targetPoint" />
          </mxGeometry>
        </mxCell>
        <mxCell id="bbrRlCH3F_wI_q4qQrbH-28" value="" style="endArrow=classic;html=1;rounded=0;exitX=0.5;exitY=1;exitDx=0;exitDy=0;entryX=0.5;entryY=0;entryDx=0;entryDy=0;" parent="1" source="bbrRlCH3F_wI_q4qQrbH-12" target="bbrRlCH3F_wI_q4qQrbH-19" edge="1">
          <mxGeometry width="50" height="50" relative="1" as="geometry">
            <mxPoint x="210" y="270" as="sourcePoint" />
            <mxPoint x="260" y="220" as="targetPoint" />
          </mxGeometry>
        </mxCell>
        <mxCell id="bbrRlCH3F_wI_q4qQrbH-29" value="" style="endArrow=classic;html=1;rounded=0;exitX=0.5;exitY=1;exitDx=0;exitDy=0;entryX=0.5;entryY=0;entryDx=0;entryDy=0;" parent="1" source="bbrRlCH3F_wI_q4qQrbH-12" target="bbrRlCH3F_wI_q4qQrbH-21" edge="1">
          <mxGeometry width="50" height="50" relative="1" as="geometry">
            <mxPoint x="210" y="220" as="sourcePoint" />
            <mxPoint x="260" y="170" as="targetPoint" />
          </mxGeometry>
        </mxCell>
        <mxCell id="bbrRlCH3F_wI_q4qQrbH-30" value="" style="endArrow=classic;html=1;rounded=0;exitX=0.5;exitY=1;exitDx=0;exitDy=0;entryX=0.5;entryY=0;entryDx=0;entryDy=0;" parent="1" source="bbrRlCH3F_wI_q4qQrbH-12" target="bbrRlCH3F_wI_q4qQrbH-22" edge="1">
          <mxGeometry width="50" height="50" relative="1" as="geometry">
            <mxPoint x="130" y="230" as="sourcePoint" />
            <mxPoint x="180" y="180" as="targetPoint" />
          </mxGeometry>
        </mxCell>
        <mxCell id="bbrRlCH3F_wI_q4qQrbH-31" value="&lt;span style=&quot;font-size: 16px;&quot;&gt;&lt;b&gt;notice&lt;/b&gt;&lt;/span&gt;&lt;div&gt;&lt;span style=&quot;font-size: 16px;&quot;&gt;&lt;b&gt;(공지사항)&lt;/b&gt;&lt;/span&gt;&lt;/div&gt;" style="rounded=0;whiteSpace=wrap;html=1;" parent="1" vertex="1">
          <mxGeometry x="414" y="480" width="120" height="60" as="geometry" />
        </mxCell>
        <mxCell id="bbrRlCH3F_wI_q4qQrbH-33" value="no&lt;div&gt;(글번호)&lt;/div&gt;" style="ellipse;whiteSpace=wrap;html=1;" parent="1" vertex="1">
          <mxGeometry x="180" y="585" width="100" height="50" as="geometry" />
        </mxCell>
        <mxCell id="bbrRlCH3F_wI_q4qQrbH-34" value="title&lt;div&gt;(글제목)&lt;/div&gt;" style="ellipse;whiteSpace=wrap;html=1;" parent="1" vertex="1">
          <mxGeometry x="300" y="585" width="100" height="50" as="geometry" />
        </mxCell>
        <mxCell id="bbrRlCH3F_wI_q4qQrbH-35" value="content&lt;div&gt;(글내용)&lt;/div&gt;" style="ellipse;whiteSpace=wrap;html=1;" parent="1" vertex="1">
          <mxGeometry x="423.5" y="585" width="100" height="50" as="geometry" />
        </mxCell>
        <mxCell id="bbrRlCH3F_wI_q4qQrbH-36" value="resdate&lt;div&gt;(작성일시)&lt;/div&gt;" style="ellipse;whiteSpace=wrap;html=1;" parent="1" vertex="1">
          <mxGeometry x="550" y="585" width="100" height="50" as="geometry" />
        </mxCell>
        <mxCell id="bbrRlCH3F_wI_q4qQrbH-37" value="visited&lt;div&gt;(읽은횟수)&lt;/div&gt;" style="ellipse;whiteSpace=wrap;html=1;" parent="1" vertex="1">
          <mxGeometry x="680" y="585" width="100" height="50" as="geometry" />
        </mxCell>
        <mxCell id="bbrRlCH3F_wI_q4qQrbH-38" value="" style="endArrow=classic;html=1;rounded=0;exitX=0.5;exitY=1;exitDx=0;exitDy=0;entryX=0.5;entryY=0;entryDx=0;entryDy=0;" parent="1" source="bbrRlCH3F_wI_q4qQrbH-31" target="bbrRlCH3F_wI_q4qQrbH-33" edge="1">
          <mxGeometry width="50" height="50" relative="1" as="geometry">
            <mxPoint x="280" y="520" as="sourcePoint" />
            <mxPoint x="330" y="470" as="targetPoint" />
          </mxGeometry>
        </mxCell>
        <mxCell id="bbrRlCH3F_wI_q4qQrbH-39" value="" style="endArrow=classic;html=1;rounded=0;exitX=0.5;exitY=1;exitDx=0;exitDy=0;entryX=0.5;entryY=0;entryDx=0;entryDy=0;" parent="1" source="bbrRlCH3F_wI_q4qQrbH-31" target="bbrRlCH3F_wI_q4qQrbH-34" edge="1">
          <mxGeometry width="50" height="50" relative="1" as="geometry">
            <mxPoint x="240" y="500" as="sourcePoint" />
            <mxPoint x="290" y="450" as="targetPoint" />
          </mxGeometry>
        </mxCell>
        <mxCell id="bbrRlCH3F_wI_q4qQrbH-40" value="" style="endArrow=classic;html=1;rounded=0;exitX=0.5;exitY=1;exitDx=0;exitDy=0;entryX=0.5;entryY=0;entryDx=0;entryDy=0;" parent="1" source="bbrRlCH3F_wI_q4qQrbH-31" target="bbrRlCH3F_wI_q4qQrbH-35" edge="1">
          <mxGeometry width="50" height="50" relative="1" as="geometry">
            <mxPoint x="350" y="520" as="sourcePoint" />
            <mxPoint x="400" y="470" as="targetPoint" />
          </mxGeometry>
        </mxCell>
        <mxCell id="bbrRlCH3F_wI_q4qQrbH-41" value="" style="endArrow=classic;html=1;rounded=0;exitX=0.5;exitY=1;exitDx=0;exitDy=0;entryX=0.5;entryY=0;entryDx=0;entryDy=0;" parent="1" source="bbrRlCH3F_wI_q4qQrbH-31" target="bbrRlCH3F_wI_q4qQrbH-36" edge="1">
          <mxGeometry width="50" height="50" relative="1" as="geometry">
            <mxPoint x="310" y="490" as="sourcePoint" />
            <mxPoint x="360" y="440" as="targetPoint" />
          </mxGeometry>
        </mxCell>
        <mxCell id="bbrRlCH3F_wI_q4qQrbH-42" value="" style="endArrow=classic;html=1;rounded=0;exitX=0.5;exitY=1;exitDx=0;exitDy=0;entryX=0.5;entryY=0;entryDx=0;entryDy=0;" parent="1" source="bbrRlCH3F_wI_q4qQrbH-31" target="bbrRlCH3F_wI_q4qQrbH-37" edge="1">
          <mxGeometry width="50" height="50" relative="1" as="geometry">
            <mxPoint x="290" y="510" as="sourcePoint" />
            <mxPoint x="340" y="460" as="targetPoint" />
          </mxGeometry>
        </mxCell>
        <mxCell id="bbrRlCH3F_wI_q4qQrbH-43" value="&lt;span style=&quot;font-size: 16px;&quot;&gt;&lt;b&gt;qna&lt;/b&gt;&lt;/span&gt;&lt;div&gt;&lt;span style=&quot;font-size: 16px;&quot;&gt;&lt;b&gt;(묻고 답하기)&lt;/b&gt;&lt;/span&gt;&lt;/div&gt;" style="rounded=0;whiteSpace=wrap;html=1;" parent="1" vertex="1">
          <mxGeometry x="418.5" y="700" width="120" height="60" as="geometry" />
        </mxCell>
        <mxCell id="bbrRlCH3F_wI_q4qQrbH-44" value="no&lt;div&gt;(글번호)&lt;/div&gt;" style="ellipse;whiteSpace=wrap;html=1;" parent="1" vertex="1">
          <mxGeometry x="5" y="800" width="100" height="50" as="geometry" />
        </mxCell>
        <mxCell id="bbrRlCH3F_wI_q4qQrbH-45" value="parno&lt;div&gt;(부모글번호)&lt;/div&gt;" style="ellipse;whiteSpace=wrap;html=1;" parent="1" vertex="1">
          <mxGeometry x="248.5" y="800" width="100" height="50" as="geometry" />
        </mxCell>
        <mxCell id="bbrRlCH3F_wI_q4qQrbH-46" value="plevel&lt;div&gt;(글 종류)&lt;/div&gt;" style="ellipse;whiteSpace=wrap;html=1;" parent="1" vertex="1">
          <mxGeometry x="125" y="800" width="100" height="50" as="geometry" />
        </mxCell>
        <mxCell id="bbrRlCH3F_wI_q4qQrbH-47" value="title&lt;div&gt;(글제목)&lt;/div&gt;" style="ellipse;whiteSpace=wrap;html=1;" parent="1" vertex="1">
          <mxGeometry x="375" y="800" width="100" height="50" as="geometry" />
        </mxCell>
        <mxCell id="bbrRlCH3F_wI_q4qQrbH-48" value="visited&lt;div&gt;(읽은횟수)&lt;/div&gt;" style="ellipse;whiteSpace=wrap;html=1;" parent="1" vertex="1">
          <mxGeometry x="735" y="800" width="100" height="50" as="geometry" />
        </mxCell>
        <mxCell id="bbrRlCH3F_wI_q4qQrbH-49" value="resdata&lt;div&gt;(작성일시)&lt;/div&gt;" style="ellipse;whiteSpace=wrap;html=1;" parent="1" vertex="1">
          <mxGeometry x="615" y="800" width="100" height="50" as="geometry" />
        </mxCell>
        <mxCell id="bbrRlCH3F_wI_q4qQrbH-50" value="&lt;u&gt;aid&lt;/u&gt;&lt;div&gt;&lt;u&gt;(작성자)&lt;/u&gt;&lt;/div&gt;" style="ellipse;whiteSpace=wrap;html=1;" parent="1" vertex="1">
          <mxGeometry x="855" y="800" width="100" height="50" as="geometry" />
        </mxCell>
        <mxCell id="bbrRlCH3F_wI_q4qQrbH-52" value="content&lt;div&gt;(글내용)&lt;/div&gt;" style="ellipse;whiteSpace=wrap;html=1;" parent="1" vertex="1">
          <mxGeometry x="495" y="800" width="100" height="50" as="geometry" />
        </mxCell>
        <mxCell id="bbrRlCH3F_wI_q4qQrbH-53" value="&lt;span style=&quot;font-size: 16px;&quot;&gt;&lt;b&gt;data&lt;/b&gt;&lt;/span&gt;&lt;div&gt;&lt;span style=&quot;font-size: 16px;&quot;&gt;&lt;b&gt;(자료실)&lt;/b&gt;&lt;/span&gt;&lt;/div&gt;" style="rounded=0;whiteSpace=wrap;html=1;" parent="1" vertex="1">
          <mxGeometry x="420" y="920" width="120" height="60" as="geometry" />
        </mxCell>
        <mxCell id="bbrRlCH3F_wI_q4qQrbH-54" value="no&lt;div&gt;(글번호)&lt;/div&gt;" style="ellipse;whiteSpace=wrap;html=1;" parent="1" vertex="1">
          <mxGeometry x="120" y="1010" width="100" height="50" as="geometry" />
        </mxCell>
        <mxCell id="bbrRlCH3F_wI_q4qQrbH-55" value="title&lt;div&gt;(글제목)&lt;/div&gt;" style="ellipse;whiteSpace=wrap;html=1;" parent="1" vertex="1">
          <mxGeometry x="240" y="1010" width="100" height="50" as="geometry" />
        </mxCell>
        <mxCell id="bbrRlCH3F_wI_q4qQrbH-56" value="content&lt;div&gt;(글내용)&lt;/div&gt;" style="ellipse;whiteSpace=wrap;html=1;" parent="1" vertex="1">
          <mxGeometry x="363.5" y="1010" width="100" height="50" as="geometry" />
        </mxCell>
        <mxCell id="bbrRlCH3F_wI_q4qQrbH-57" value="resdate&lt;div&gt;(작성일시)&lt;/div&gt;" style="ellipse;whiteSpace=wrap;html=1;" parent="1" vertex="1">
          <mxGeometry x="610" y="1010" width="100" height="50" as="geometry" />
        </mxCell>
        <mxCell id="bbrRlCH3F_wI_q4qQrbH-58" value="visited&lt;div&gt;(읽은횟수)&lt;/div&gt;" style="ellipse;whiteSpace=wrap;html=1;" parent="1" vertex="1">
          <mxGeometry x="740" y="1010" width="100" height="50" as="geometry" />
        </mxCell>
        <mxCell id="bbrRlCH3F_wI_q4qQrbH-59" value="datafile&lt;div&gt;(자료파일)&lt;/div&gt;" style="ellipse;whiteSpace=wrap;html=1;" parent="1" vertex="1">
          <mxGeometry x="490" y="1010" width="100" height="50" as="geometry" />
        </mxCell>
        <mxCell id="bbrRlCH3F_wI_q4qQrbH-60" value="" style="endArrow=classic;html=1;rounded=0;exitX=0.5;exitY=1;exitDx=0;exitDy=0;entryX=0.5;entryY=0;entryDx=0;entryDy=0;" parent="1" source="bbrRlCH3F_wI_q4qQrbH-43" target="bbrRlCH3F_wI_q4qQrbH-44" edge="1">
          <mxGeometry width="50" height="50" relative="1" as="geometry">
            <mxPoint x="230" y="730" as="sourcePoint" />
            <mxPoint x="280" y="680" as="targetPoint" />
          </mxGeometry>
        </mxCell>
        <mxCell id="bbrRlCH3F_wI_q4qQrbH-61" value="" style="endArrow=classic;html=1;rounded=0;exitX=0.5;exitY=1;exitDx=0;exitDy=0;entryX=0.5;entryY=0;entryDx=0;entryDy=0;" parent="1" source="bbrRlCH3F_wI_q4qQrbH-43" target="bbrRlCH3F_wI_q4qQrbH-46" edge="1">
          <mxGeometry width="50" height="50" relative="1" as="geometry">
            <mxPoint x="230" y="740" as="sourcePoint" />
            <mxPoint x="280" y="690" as="targetPoint" />
          </mxGeometry>
        </mxCell>
        <mxCell id="bbrRlCH3F_wI_q4qQrbH-62" value="" style="endArrow=classic;html=1;rounded=0;entryX=0.5;entryY=0;entryDx=0;entryDy=0;" parent="1" target="bbrRlCH3F_wI_q4qQrbH-45" edge="1">
          <mxGeometry width="50" height="50" relative="1" as="geometry">
            <mxPoint x="480" y="760" as="sourcePoint" />
            <mxPoint x="170" y="680" as="targetPoint" />
          </mxGeometry>
        </mxCell>
        <mxCell id="bbrRlCH3F_wI_q4qQrbH-63" value="" style="endArrow=classic;html=1;rounded=0;entryX=0.5;entryY=0;entryDx=0;entryDy=0;" parent="1" target="bbrRlCH3F_wI_q4qQrbH-47" edge="1">
          <mxGeometry width="50" height="50" relative="1" as="geometry">
            <mxPoint x="480" y="760" as="sourcePoint" />
            <mxPoint x="230" y="650" as="targetPoint" />
          </mxGeometry>
        </mxCell>
        <mxCell id="bbrRlCH3F_wI_q4qQrbH-64" value="" style="endArrow=classic;html=1;rounded=0;exitX=0.5;exitY=1;exitDx=0;exitDy=0;entryX=0.5;entryY=0;entryDx=0;entryDy=0;" parent="1" source="bbrRlCH3F_wI_q4qQrbH-43" target="bbrRlCH3F_wI_q4qQrbH-52" edge="1">
          <mxGeometry width="50" height="50" relative="1" as="geometry">
            <mxPoint x="210" y="740" as="sourcePoint" />
            <mxPoint x="260" y="690" as="targetPoint" />
          </mxGeometry>
        </mxCell>
        <mxCell id="bbrRlCH3F_wI_q4qQrbH-65" value="" style="endArrow=classic;html=1;rounded=0;exitX=0.5;exitY=1;exitDx=0;exitDy=0;entryX=0.5;entryY=0;entryDx=0;entryDy=0;" parent="1" source="bbrRlCH3F_wI_q4qQrbH-43" target="bbrRlCH3F_wI_q4qQrbH-49" edge="1">
          <mxGeometry width="50" height="50" relative="1" as="geometry">
            <mxPoint x="140" y="720" as="sourcePoint" />
            <mxPoint x="190" y="670" as="targetPoint" />
          </mxGeometry>
        </mxCell>
        <mxCell id="bbrRlCH3F_wI_q4qQrbH-66" value="" style="endArrow=classic;html=1;rounded=0;exitX=0.5;exitY=1;exitDx=0;exitDy=0;entryX=0.5;entryY=0;entryDx=0;entryDy=0;" parent="1" source="bbrRlCH3F_wI_q4qQrbH-43" target="bbrRlCH3F_wI_q4qQrbH-48" edge="1">
          <mxGeometry width="50" height="50" relative="1" as="geometry">
            <mxPoint x="160" y="670" as="sourcePoint" />
            <mxPoint x="210" y="620" as="targetPoint" />
          </mxGeometry>
        </mxCell>
        <mxCell id="bbrRlCH3F_wI_q4qQrbH-67" value="" style="endArrow=classic;html=1;rounded=0;exitX=0.5;exitY=1;exitDx=0;exitDy=0;entryX=0.5;entryY=0;entryDx=0;entryDy=0;" parent="1" source="bbrRlCH3F_wI_q4qQrbH-43" target="bbrRlCH3F_wI_q4qQrbH-50" edge="1">
          <mxGeometry width="50" height="50" relative="1" as="geometry">
            <mxPoint x="130" y="720" as="sourcePoint" />
            <mxPoint x="180" y="670" as="targetPoint" />
          </mxGeometry>
        </mxCell>
        <mxCell id="bbrRlCH3F_wI_q4qQrbH-68" value="" style="endArrow=classic;html=1;rounded=0;exitX=0.5;exitY=1;exitDx=0;exitDy=0;entryX=0.5;entryY=0;entryDx=0;entryDy=0;" parent="1" source="bbrRlCH3F_wI_q4qQrbH-53" target="bbrRlCH3F_wI_q4qQrbH-54" edge="1">
          <mxGeometry width="50" height="50" relative="1" as="geometry">
            <mxPoint x="250" y="970" as="sourcePoint" />
            <mxPoint x="300" y="920" as="targetPoint" />
          </mxGeometry>
        </mxCell>
        <mxCell id="bbrRlCH3F_wI_q4qQrbH-69" value="" style="endArrow=classic;html=1;rounded=0;exitX=0.5;exitY=1;exitDx=0;exitDy=0;entryX=0.5;entryY=0;entryDx=0;entryDy=0;" parent="1" source="bbrRlCH3F_wI_q4qQrbH-53" target="bbrRlCH3F_wI_q4qQrbH-55" edge="1">
          <mxGeometry width="50" height="50" relative="1" as="geometry">
            <mxPoint x="250" y="960" as="sourcePoint" />
            <mxPoint x="300" y="910" as="targetPoint" />
          </mxGeometry>
        </mxCell>
        <mxCell id="bbrRlCH3F_wI_q4qQrbH-70" value="" style="endArrow=classic;html=1;rounded=0;exitX=0.5;exitY=1;exitDx=0;exitDy=0;entryX=0.5;entryY=0;entryDx=0;entryDy=0;" parent="1" source="bbrRlCH3F_wI_q4qQrbH-53" target="bbrRlCH3F_wI_q4qQrbH-56" edge="1">
          <mxGeometry width="50" height="50" relative="1" as="geometry">
            <mxPoint x="210" y="970" as="sourcePoint" />
            <mxPoint x="260" y="920" as="targetPoint" />
          </mxGeometry>
        </mxCell>
        <mxCell id="bbrRlCH3F_wI_q4qQrbH-71" value="" style="endArrow=classic;html=1;rounded=0;exitX=0.5;exitY=1;exitDx=0;exitDy=0;entryX=0.5;entryY=0;entryDx=0;entryDy=0;" parent="1" source="bbrRlCH3F_wI_q4qQrbH-53" target="bbrRlCH3F_wI_q4qQrbH-59" edge="1">
          <mxGeometry width="50" height="50" relative="1" as="geometry">
            <mxPoint x="220" y="940" as="sourcePoint" />
            <mxPoint x="270" y="890" as="targetPoint" />
          </mxGeometry>
        </mxCell>
        <mxCell id="bbrRlCH3F_wI_q4qQrbH-72" value="" style="endArrow=classic;html=1;rounded=0;exitX=0.5;exitY=1;exitDx=0;exitDy=0;entryX=0.5;entryY=0;entryDx=0;entryDy=0;" parent="1" source="bbrRlCH3F_wI_q4qQrbH-53" target="bbrRlCH3F_wI_q4qQrbH-57" edge="1">
          <mxGeometry width="50" height="50" relative="1" as="geometry">
            <mxPoint x="260" y="950" as="sourcePoint" />
            <mxPoint x="310" y="900" as="targetPoint" />
          </mxGeometry>
        </mxCell>
        <mxCell id="bbrRlCH3F_wI_q4qQrbH-73" value="" style="endArrow=classic;html=1;rounded=0;exitX=0.5;exitY=1;exitDx=0;exitDy=0;entryX=0.5;entryY=0;entryDx=0;entryDy=0;" parent="1" source="bbrRlCH3F_wI_q4qQrbH-53" target="bbrRlCH3F_wI_q4qQrbH-58" edge="1">
          <mxGeometry width="50" height="50" relative="1" as="geometry">
            <mxPoint x="300" y="930" as="sourcePoint" />
            <mxPoint x="350" y="880" as="targetPoint" />
          </mxGeometry>
        </mxCell>
        <mxCell id="DWuDcNHttOawWwaqpSgL-3" value="&lt;span style=&quot;font-size: 16px;&quot;&gt;&lt;b&gt;member&lt;/b&gt;&lt;/span&gt;&lt;div&gt;&lt;span style=&quot;font-size: 16px;&quot;&gt;&lt;b&gt;(멤버)&lt;/b&gt;&lt;/span&gt;&lt;/div&gt;" style="rounded=0;whiteSpace=wrap;html=1;" vertex="1" parent="1">
          <mxGeometry x="414" y="1150" width="120" height="60" as="geometry" />
        </mxCell>
        <mxCell id="DWuDcNHttOawWwaqpSgL-4" value="id&lt;br&gt;&lt;div&gt;(작성자)&lt;/div&gt;" style="ellipse;whiteSpace=wrap;html=1;" vertex="1" parent="1">
          <mxGeometry x="180" y="1255" width="100" height="50" as="geometry" />
        </mxCell>
        <mxCell id="DWuDcNHttOawWwaqpSgL-5" value="pw&lt;div&gt;(비밀번호)&lt;/div&gt;" style="ellipse;whiteSpace=wrap;html=1;" vertex="1" parent="1">
          <mxGeometry x="300" y="1255" width="100" height="50" as="geometry" />
        </mxCell>
        <mxCell id="DWuDcNHttOawWwaqpSgL-6" value="name&lt;div&gt;(이름)&lt;/div&gt;" style="ellipse;whiteSpace=wrap;html=1;" vertex="1" parent="1">
          <mxGeometry x="423.5" y="1255" width="100" height="50" as="geometry" />
        </mxCell>
        <mxCell id="DWuDcNHttOawWwaqpSgL-7" value="email&lt;div&gt;(이메일)&lt;/div&gt;" style="ellipse;whiteSpace=wrap;html=1;" vertex="1" parent="1">
          <mxGeometry x="550" y="1255" width="100" height="50" as="geometry" />
        </mxCell>
        <mxCell id="DWuDcNHttOawWwaqpSgL-8" value="tel&lt;div&gt;(전화번호)&lt;/div&gt;" style="ellipse;whiteSpace=wrap;html=1;" vertex="1" parent="1">
          <mxGeometry x="680" y="1255" width="100" height="50" as="geometry" />
        </mxCell>
        <mxCell id="DWuDcNHttOawWwaqpSgL-9" value="" style="endArrow=classic;html=1;rounded=0;exitX=0.5;exitY=1;exitDx=0;exitDy=0;entryX=0.5;entryY=0;entryDx=0;entryDy=0;" edge="1" parent="1" source="DWuDcNHttOawWwaqpSgL-3" target="DWuDcNHttOawWwaqpSgL-4">
          <mxGeometry width="50" height="50" relative="1" as="geometry">
            <mxPoint x="280" y="1190" as="sourcePoint" />
            <mxPoint x="330" y="1140" as="targetPoint" />
          </mxGeometry>
        </mxCell>
        <mxCell id="DWuDcNHttOawWwaqpSgL-10" value="" style="endArrow=classic;html=1;rounded=0;exitX=0.5;exitY=1;exitDx=0;exitDy=0;entryX=0.5;entryY=0;entryDx=0;entryDy=0;" edge="1" parent="1" source="DWuDcNHttOawWwaqpSgL-3" target="DWuDcNHttOawWwaqpSgL-5">
          <mxGeometry width="50" height="50" relative="1" as="geometry">
            <mxPoint x="240" y="1170" as="sourcePoint" />
            <mxPoint x="290" y="1120" as="targetPoint" />
          </mxGeometry>
        </mxCell>
        <mxCell id="DWuDcNHttOawWwaqpSgL-11" value="" style="endArrow=classic;html=1;rounded=0;exitX=0.5;exitY=1;exitDx=0;exitDy=0;entryX=0.5;entryY=0;entryDx=0;entryDy=0;" edge="1" parent="1" source="DWuDcNHttOawWwaqpSgL-3" target="DWuDcNHttOawWwaqpSgL-6">
          <mxGeometry width="50" height="50" relative="1" as="geometry">
            <mxPoint x="350" y="1190" as="sourcePoint" />
            <mxPoint x="400" y="1140" as="targetPoint" />
          </mxGeometry>
        </mxCell>
        <mxCell id="DWuDcNHttOawWwaqpSgL-12" value="" style="endArrow=classic;html=1;rounded=0;exitX=0.5;exitY=1;exitDx=0;exitDy=0;entryX=0.5;entryY=0;entryDx=0;entryDy=0;" edge="1" parent="1" source="DWuDcNHttOawWwaqpSgL-3" target="DWuDcNHttOawWwaqpSgL-7">
          <mxGeometry width="50" height="50" relative="1" as="geometry">
            <mxPoint x="310" y="1160" as="sourcePoint" />
            <mxPoint x="360" y="1110" as="targetPoint" />
          </mxGeometry>
        </mxCell>
        <mxCell id="DWuDcNHttOawWwaqpSgL-13" value="" style="endArrow=classic;html=1;rounded=0;exitX=0.5;exitY=1;exitDx=0;exitDy=0;entryX=0.5;entryY=0;entryDx=0;entryDy=0;" edge="1" parent="1" source="DWuDcNHttOawWwaqpSgL-3" target="DWuDcNHttOawWwaqpSgL-8">
          <mxGeometry width="50" height="50" relative="1" as="geometry">
            <mxPoint x="290" y="1180" as="sourcePoint" />
            <mxPoint x="340" y="1130" as="targetPoint" />
          </mxGeometry>
        </mxCell>
      </root>
    </mxGraphModel>
  </diagram>
</mxfile>
